<svg xmlns="http://www.w3.org/2000/svg" viewBox="0 0 150 41">
  <path d="M40.611 12.175a9.074 9.074 0 00-2.718-.467 3.633 3.633 0 00-1.865.413 1.382 1.382 0 00-.693 1.274 1.512 1.512 0 00.871 1.382 13.9 13.9 0 002.753 1.024 26.374 26.374 0 013.269 1.2 6.166 6.166 0 012.221 1.759 4.747 4.747 0 01.941 3.07 4.962 4.962 0 01-2.132 4.309 9.062 9.062 0 01-5.364 1.508 13.475 13.475 0 01-4.3-.7 10.09 10.09 0 01-3.552-1.989l1.6-3.268a9.324 9.324 0 003.054 1.745 10.119 10.119 0 003.375.628 4.014 4.014 0 002.043-.449 1.464 1.464 0 00.764-1.347 1.631 1.631 0 00-.888-1.508 15.661 15.661 0 00-2.878-1.113 24.189 24.189 0 01-3.127-1.131 5.655 5.655 0 01-2.1-1.688 4.658 4.658 0 01-.883-2.966 5.025 5.025 0 012.04-4.326 8.482 8.482 0 015.137-1.494 13.081 13.081 0 013.713.539 11.48 11.48 0 013.25 1.508l-1.67 3.375a13.617 13.617 0 00-2.861-1.288zm16.565 0a9.073 9.073 0 00-2.718-.467 3.633 3.633 0 00-1.865.413 1.382 1.382 0 00-.693 1.274 1.512 1.512 0 00.87 1.382 13.9 13.9 0 002.753 1.024 26.367 26.367 0 013.268 1.2 6.167 6.167 0 012.221 1.759 4.747 4.747 0 01.941 3.07 4.962 4.962 0 01-2.132 4.309 9.062 9.062 0 01-5.365 1.508 13.475 13.475 0 01-4.3-.7 10.088 10.088 0 01-3.551-1.989l1.6-3.268a9.326 9.326 0 003.055 1.745 10.116 10.116 0 003.375.628 4.014 4.014 0 002.043-.449 1.464 1.464 0 00.764-1.347 1.631 1.631 0 00-.888-1.508 15.662 15.662 0 00-2.878-1.113 24.2 24.2 0 01-3.127-1.131 5.657 5.657 0 01-2.1-1.688 4.659 4.659 0 01-.884-2.966 5.025 5.025 0 012.04-4.326 8.483 8.483 0 015.137-1.494 13.081 13.081 0 013.712.539 11.475 11.475 0 013.251 1.508l-1.67 3.375a13.611 13.611 0 00-2.859-1.288zm7.879 15.295V8.259h4.614V27.47zm.388-22.7a2.761 2.761 0 01-.748-1.97 2.81 2.81 0 01.748-2.01 2.638 2.638 0 013.766 0 2.81 2.81 0 01.746 2.01 2.761 2.761 0 01-.746 1.974 2.638 2.638 0 01-3.766 0zm16.724 29.85h-.284a13.785 13.785 0 01-8-2.547l1.848-3.375a9.776 9.776 0 005.915 2.012h.017c.106.005.211.008.312.008a5.968 5.968 0 003.756-1.338 4.566 4.566 0 001.512-3.63v-2.261a6.349 6.349 0 01-2.488 2.244 7.818 7.818 0 01-3.381.774h-.328a8.31 8.31 0 01-4.246-1.169 7.918 7.918 0 01-2.984-3.268 10.564 10.564 0 01-1.07-4.83 10.263 10.263 0 011.068-4.758 7.855 7.855 0 012.984-3.214 8.41 8.41 0 014.239-1.148h.315a7.7 7.7 0 013.384.787 6.566 6.566 0 012.5 2.228V8.26h4.621v17.383a9.019 9.019 0 01-1.226 4.757 8.064 8.064 0 01-3.478 3.12 11.96 11.96 0 01-4.986 1.1zm.027-22.769a5.128 5.128 0 00-3.638 1.544 6.163 6.163 0 000 7.918 5.153 5.153 0 003.641 1.525 5.087 5.087 0 003.641-1.525 6.329 6.329 0 000-7.936 5.131 5.131 0 00-3.631-1.526zm30.612-1.78a7.551 7.551 0 011.883 5.4v12h-4.655V16.843a4.362 4.362 0 00-1.134-3.178 4.118 4.118 0 00-3.091-1.167 4.664 4.664 0 00-3.642 1.58 5.834 5.834 0 00-1.332 3.947v9.446h-4.619V8.26h4.621v3.591q1.953-3.698 6.821-3.771a6.746 6.746 0 015.148 1.991zm11.1 17.617a7.628 7.628 0 01-3.336-.774 5.611 5.611 0 01-2.327-2.137 5.831 5.831 0 01-.819-3.052 5.149 5.149 0 011.884-4.22 8.425 8.425 0 015.329-1.562h5.543v-.5a3.27 3.27 0 00-1.1-2.621 4.794 4.794 0 00-2.867-.945c-.11 0-.221 0-.332.011a10.907 10.907 0 00-5.649 1.789l-1.669-3.228a20.928 20.928 0 014.068-1.813 14.8 14.8 0 014.027-.559h.261a8.444 8.444 0 015.737 1.8 6.424 6.424 0 012.079 5.03l.031 12.57h-4.547v-2.34a6.256 6.256 0 01-2.559 1.9 9.3 9.3 0 01-3.418.647h-.172zm1.121-8.635a5.2 5.2 0 00-2.358.569 1.99 1.99 0 00-.87 1.813 2.349 2.349 0 00.905 1.942 3.851 3.851 0 002.253.724c.062 0 .133 0 .217-.006h.174a5.977 5.977 0 003.237-.95 3.319 3.319 0 001.6-2.356v-1.724h-4.8a5.284 5.284 0 00-.358-.012zm21.118-9.949A7.622 7.622 0 01150 8.081v4.525a6.225 6.225 0 00-4.707 1.382 5.36 5.36 0 00-1.759 4.22v9.263h-4.615V8.261h4.618v3.7a6.913 6.913 0 012.608-2.857zM7.828 27.495H2.769L13.548 2.358h5.159l10.778 25.135h-5.059l-2.277-5.307H10.105l-2.277 5.309zm8.3-19.352l-4.249 9.908h8.5l-4.251-9.907z" fill="currentColor"/>
  <path d="M0 33.932l1.846-4.306 14.282 6.257 14.281-6.257 1.846 4.306L16.128 41z" fill="currentColor"/>
</svg>