<svg viewBox="0 0 318 72" xmlns="http://www.w3.org/2000/svg">
<g clip-path="url(#clip0_1_17)">
<path d="M122.93 64.8C106.31 64.8 96.19 53.41 96.19 36.08C96.19 18.75 106.56 7.2 122.85 7.2C134.32 7.2 143.9 12.18 146.74 26.66C146.82 27.06 146.5 27.45 146.11 27.45H138.2C137.73 27.45 137.33 27.13 137.25 26.66C135.59 18.98 130.37 15.03 122.69 15.03C112.09 15.03 106.23 23.1 106.23 36.08C106.23 49.06 112.32 56.97 122.69 56.97C131.08 56.97 136.14 52.46 137.56 44.07C137.56 43.6 137.96 43.28 138.43 43.28H146.5C146.9 43.28 147.21 43.68 147.13 44.07C144.6 58.71 135.66 64.8 122.92 64.8H122.93ZM189.01 49.77C189.41 49.77 189.72 50.17 189.72 50.56C188.53 58.31 181.89 64.64 170.97 64.64C157.84 64.64 150.79 55.86 150.79 43.44C150.79 31.02 158.31 22 170.65 22C182.99 22 190.43 30.47 190.67 44.31C190.67 44.71 190.27 45.1 189.88 45.1H160.37C160.77 53.8 164.25 57.92 171.13 57.92C176.11 57.92 179.28 55.55 180.47 50.56C180.55 50.09 180.94 49.77 181.42 49.77H189.02H189.01ZM170.73 28.64C165.03 28.64 161.71 32.12 160.68 38.69H180.38C180.06 33.39 176.98 28.64 170.73 28.64ZM196.43 63.69C196.03 63.69 195.64 63.29 195.64 62.9L195.96 35.84L195.64 9.1C195.64 8.7 196.04 8.31 196.43 8.31H204.42C204.82 8.31 205.21 8.71 205.21 9.1L204.89 35.84L205.21 62.9C205.21 63.3 204.81 63.69 204.42 63.69H196.43ZM248.54 49.76C248.94 49.76 249.25 50.16 249.25 50.55C248.06 58.3 241.42 64.63 230.5 64.63C217.37 64.63 210.32 55.85 210.32 43.43C210.32 31.01 217.84 21.99 230.18 21.99C242.52 21.99 249.96 30.46 250.2 44.3C250.2 44.7 249.8 45.09 249.41 45.09H219.9C220.3 53.79 223.78 57.91 230.66 57.91C235.64 57.91 238.81 55.54 240 50.55C240.08 50.08 240.47 49.76 240.95 49.76H248.55H248.54ZM230.26 28.63C224.56 28.63 221.24 32.11 220.21 38.68H239.91C239.59 33.38 236.51 28.63 230.26 28.63ZM272.43 64.63C261.27 64.63 253.76 59.8 253.36 50.63C253.36 50.23 253.76 49.84 254.15 49.84H261.83C262.23 49.84 262.62 50.16 262.62 50.63C262.94 55.93 266.42 58.3 272.75 58.3C278.13 58.3 281.37 56.16 281.37 52.37C281.37 43.35 254.31 51.34 254.31 34.57C254.31 26.34 260.88 21.99 271.24 21.99C281.6 21.99 288.33 26.18 288.96 34.57C289.04 34.97 288.64 35.36 288.25 35.36H280.97C280.5 35.36 280.18 35.04 280.1 34.57C279.39 30.46 276.38 28.16 271.08 28.16C266.41 28.16 263.4 29.9 263.4 33.86C263.4 42.64 290.46 34.33 290.46 51.58C290.46 59.89 282.71 64.64 272.42 64.64L272.43 64.63ZM317.07 62.26C317.07 62.73 316.75 63.13 316.36 63.29C314.38 63.92 312.09 64.4 309.95 64.4C303.54 64.4 297.77 61.16 297.77 52.06L297.85 30.06H293.34C292.94 30.06 292.55 29.66 292.55 29.27V23.73C292.55 23.33 292.95 22.94 293.34 22.94H297.85L297.69 13.52C297.69 13.12 298.09 12.73 298.48 12.73H306.55C306.95 12.73 307.34 13.13 307.34 13.52L307.26 22.94H316.36C316.76 22.94 317.15 23.34 317.15 23.73V29.27C317.15 29.67 316.75 30.06 316.36 30.06H307.18L307.26 51.82C307.26 55.93 309 57.2 312.01 57.2C313.67 57.2 315.17 56.96 316.28 56.65C316.68 56.49 317.07 56.81 317.07 57.2V62.26ZM42.55 62.33C43.56 64.87 43.03 67.87 40.98 69.92C39.77 71.13 38.24 71.8 36.67 71.95C36.59 71.95 36.5 71.96 36.42 71.97C36.39 71.97 36.37 71.97 36.34 71.97C36.34 71.97 36.33 71.97 36.32 71.97C36.3 71.97 36.27 71.97 36.25 71.97C36.08 71.97 35.91 71.97 35.74 71.97C35.71 71.97 35.69 71.97 35.66 71.97C35.63 71.97 35.6 71.97 35.58 71.97C33.92 71.87 32.28 71.19 31.01 69.92C28.96 67.87 28.43 64.86 29.44 62.32L29.71 61.73L29.82 61.48L36 47.8L42.18 61.48L42.29 61.73L42.56 62.32L42.55 62.33ZM53.01 25.59L53.12 25.55L53.97 25.23C54.18 25.13 54.38 25.01 54.58 24.89C54.89 24.69 55.18 24.45 55.45 24.18C57.18 22.45 57.49 19.84 56.38 17.79C56.35 17.73 56.32 17.67 56.28 17.62C56.25 17.56 56.21 17.51 56.17 17.45C56.16 17.43 56.15 17.41 56.13 17.39C56.11 17.35 56.08 17.32 56.06 17.28C56.05 17.26 56.03 17.24 56.02 17.22C55.94 17.1 55.85 16.99 55.75 16.88C55.73 16.85 55.7 16.82 55.68 16.8C55.66 16.78 55.65 16.77 55.63 16.75C55.6 16.72 55.57 16.68 55.54 16.65C55.51 16.62 55.48 16.58 55.44 16.55C55.41 16.52 55.37 16.48 55.34 16.45C55.31 16.42 55.27 16.39 55.24 16.36C55.22 16.34 55.21 16.33 55.19 16.31C55.16 16.29 55.13 16.26 55.11 16.24C55 16.15 54.88 16.06 54.77 15.97C54.75 15.96 54.73 15.94 54.71 15.93C54.67 15.9 54.64 15.88 54.6 15.86C54.58 15.85 54.56 15.84 54.54 15.82C54.48 15.78 54.43 15.75 54.37 15.71C54.31 15.68 54.25 15.64 54.2 15.61C52.15 14.5 49.54 14.81 47.81 16.54C47.54 16.81 47.3 17.1 47.1 17.41C46.97 17.61 46.86 17.81 46.76 18.02L46.44 18.87L46.4 18.98L42.38 29.61L53.01 25.6V25.59ZM18.98 46.4L18.87 46.44L18.02 46.76C17.81 46.86 17.61 46.98 17.41 47.1C17.1 47.3 16.81 47.54 16.54 47.81C14.81 49.54 14.5 52.15 15.61 54.2C15.65 54.28 15.7 54.36 15.74 54.43C15.76 54.47 15.78 54.5 15.81 54.54C15.82 54.56 15.84 54.58 15.85 54.6C15.87 54.64 15.9 54.67 15.92 54.71C15.93 54.73 15.95 54.75 15.96 54.77C15.98 54.8 16.01 54.84 16.03 54.87C16.09 54.95 16.16 55.03 16.22 55.11C16.24 55.14 16.27 55.17 16.29 55.19C16.31 55.21 16.32 55.22 16.34 55.24C16.37 55.27 16.4 55.31 16.43 55.34C16.46 55.37 16.49 55.41 16.53 55.44C16.56 55.47 16.6 55.51 16.63 55.54C16.66 55.57 16.7 55.6 16.73 55.63C16.75 55.65 16.76 55.66 16.78 55.68C16.81 55.7 16.84 55.73 16.86 55.75C16.94 55.82 17.02 55.88 17.1 55.94C17.13 55.97 17.17 55.99 17.2 56.01C17.22 56.02 17.24 56.04 17.26 56.05C17.3 56.08 17.33 56.1 17.37 56.12C17.39 56.13 17.41 56.15 17.43 56.16C17.46 56.18 17.5 56.2 17.54 56.23C17.62 56.28 17.7 56.32 17.77 56.36C19.82 57.47 22.43 57.16 24.16 55.43C24.43 55.16 24.67 54.87 24.87 54.56C25 54.36 25.11 54.16 25.21 53.95L25.53 53.1L25.57 52.99L29.59 42.36L18.96 46.38L18.98 46.4ZM10.5 29.82L10.25 29.71L9.65001 29.44C7.11001 28.44 4.11001 28.96 2.06001 31.01C0.85001 32.22 0.18001 33.75 0.0300098 35.32C0.0300098 35.4 0.0200098 35.49 0.0100098 35.57C0.0100098 35.6 0.0100098 35.62 0.0100098 35.65C0.0100098 35.65 0.0100098 35.66 0.0100098 35.67C0.0100098 35.69 0.0100098 35.72 0.0100098 35.74C0.0100098 35.91 0.0100098 36.08 0.0100098 36.25C0.0100098 36.28 0.0100098 36.3 0.0100098 36.33C0.0100098 36.36 0.0100098 36.39 0.0100098 36.41C0.11001 38.07 0.79001 39.71 2.06001 40.98C4.11001 43.03 7.12001 43.56 9.65001 42.55L10.25 42.28L10.5 42.17L24.18 35.99L10.5 29.81V29.82ZM71.99 35.72C71.99 35.72 71.99 35.66 71.99 35.63C71.99 35.6 71.99 35.57 71.99 35.55C71.99 35.53 71.99 35.51 71.99 35.48C71.99 35.45 71.99 35.43 71.99 35.4C71.99 35.38 71.99 35.36 71.99 35.33C71.99 35.32 71.99 35.31 71.99 35.3C71.99 35.28 71.99 35.25 71.99 35.23C71.99 35.2 71.99 35.17 71.99 35.15C71.99 35.12 71.99 35.09 71.98 35.07C71.97 35.05 71.98 35.01 71.97 34.99C71.97 34.96 71.97 34.93 71.96 34.91C71.74 33.49 71.08 32.12 69.98 31.02C67.93 28.97 64.93 28.44 62.39 29.45L61.79 29.72L61.54 29.83L47.86 36.01L61.54 42.19L61.79 42.3L62.39 42.57C64.93 43.58 67.93 43.05 69.99 41C71.15 39.84 71.82 38.37 72.01 36.86C72.01 36.81 72.02 36.75 72.03 36.7C72.03 36.7 72.03 36.69 72.03 36.68C72.03 36.66 72.03 36.63 72.03 36.61C72.03 36.58 72.03 36.55 72.03 36.53C72.03 36.51 72.03 36.49 72.03 36.47C72.03 36.44 72.03 36.42 72.03 36.39C72.03 36.36 72.03 36.33 72.03 36.3C72.03 36.21 72.03 36.12 72.03 36.03C72.03 35.94 72.03 35.85 72.03 35.76L71.99 35.72ZM29.71 10.26L29.82 10.51L36 24.19L42.18 10.51L42.29 10.26L42.56 9.67C43.57 7.13 43.04 4.13 40.99 2.08C39.78 0.869999 38.25 0.199999 36.68 0.0499988C36.6 0.0499988 36.51 0.0399988 36.43 0.0299988C36.4 0.0299988 36.38 0.0299988 36.35 0.0299988C36.35 0.0299988 36.34 0.0299988 36.33 0.0299988C36.31 0.0299988 36.28 0.0299988 36.26 0.0299988C36.09 0.0299988 35.92 0.0299988 35.75 0.0299988C35.72 0.0299988 35.7 0.0299988 35.67 0.0299988C35.64 0.0299988 35.61 0.0299988 35.59 0.0299988C33.93 0.129999 32.29 0.809999 31.02 2.08C28.97 4.13 28.44 7.14 29.45 9.68L29.72 10.28L29.71 10.26ZM17.41 24.89C17.61 25.02 17.81 25.13 18.02 25.23L18.87 25.55L18.93 25.57L29.6 29.6L25.57 18.93L25.55 18.87L25.23 18.02C25.13 17.81 25.01 17.61 24.89 17.41C24.69 17.1 24.45 16.81 24.18 16.54C22.07 14.43 18.65 14.43 16.54 16.54C16.41 16.67 16.28 16.81 16.17 16.95C14.44 19.07 14.56 22.2 16.54 24.18C16.81 24.45 17.1 24.69 17.41 24.89ZM54.59 47.11C54.39 46.98 54.19 46.87 53.98 46.77L53.13 46.45L53.07 46.43L42.4 42.4L46.43 53.07L46.45 53.13L46.77 53.98C46.87 54.19 46.99 54.39 47.11 54.59C47.31 54.9 47.55 55.19 47.82 55.46C49.93 57.57 53.35 57.57 55.46 55.46C55.59 55.33 55.72 55.19 55.83 55.05C57.56 52.93 57.44 49.8 55.46 47.82C55.19 47.55 54.9 47.31 54.59 47.11Z" fill="currentColor"/>
</g>
<defs>
<clipPath id="clip0_1_17">
<rect width="317.16" height="72" fill="currentColor"/>
</clipPath>
</defs>
</svg>