<svg xmlns="http://www.w3.org/2000/svg" viewBox="0 0 108 31.27">
  <path d="M0,16.91,2.62,14A4.68,4.68,0,0,0,6.07,15.9c1.57,0,2.54-.94,2.54-3.13V.6h4.26V13a6.89,6.89,0,0,1-1.78,5,6.8,6.8,0,0,1-4.91,1.81A7.74,7.74,0,0,1,0,16.91ZM14.65,10.1V10a10,10,0,1,1,20.07,0h0a10,10,0,0,1-20.07.06Zm15.73,0V10a5.74,5.74,0,0,0-5.55-5.93h-.17A5.63,5.63,0,0,0,19,9.72V10A5.73,5.73,0,0,0,24.53,16h.19a5.65,5.65,0,0,0,5.66-5.62V10.1Zm6-9.5h8.77a6.78,6.78,0,0,1,4.94,1.68A4.34,4.34,0,0,1,51.38,5.5h0A4.38,4.38,0,0,1,48.9,9.61c2.19.84,3.53,2.11,3.53,4.63v0c0,3.45-2.8,5.18-7.06,5.18h-9Zm7.88,7.68c1.83,0,3-.6,3-2h0c0-1.24-1-2-2.72-2h-4.1v4Zm1.11,7.61c1.83,0,2.94-.65,2.94-2v-.08c0-1.27-1-2-3.08-2h-4.8V16Zm7.63.92,2.4-3A8.76,8.76,0,0,0,61,16.09c1.7,0,2.73-.68,2.73-1.78v0c0-1-.65-1.59-3.81-2.4-3.8-1-6.26-2-6.26-5.77V6c0-3.42,2.75-5.69,6.61-5.69a10.93,10.93,0,0,1,7,2.4L65.11,5.86A8.72,8.72,0,0,0,60.2,4c-1.59,0-2.43.73-2.43,1.65h0c0,1.24.81,1.65,4.07,2.48,3.84,1,6,2.38,6,5.67h0c0,3.75-2.84,5.86-6.84,5.86a12,12,0,0,1-8-2.89ZM70.13.63h4.15V19.48H70.13ZM81.78,4.46H76V.6H91.65V4.43H85.9V19.48H81.74ZM93.67.63h14.25v3.7H97.75V8.16h8.9v3.7h-8.9v4H108v3.7H93.62Z"  fill="currentColor"/>
  <polygon points="101.92 25 108 25 108 26.14 103.53 26.14 103.53 27.5 106.39 27.5 106.39 28.64 103.53 28.64 103.53 30 108 30 108 31.14 101.92 31.14 101.92 25"  fill="currentColor"/>
  <path d="M78.45,25h-4a1.22,1.22,0,0,0-1.25,1.17h0v3.72a1.21,1.21,0,0,0,1.17,1.25h4.08A1.2,1.2,0,0,0,79.7,30h0V26.28A1.21,1.21,0,0,0,78.53,25h0Zm-.86,5H75.35l-1.12-1.93,1.12-1.93h2.24l1.11,1.93Z"  fill="currentColor"/>
  <path d="M100.08,28.89a1.21,1.21,0,0,0,1.14-1.25V26.28A1.21,1.21,0,0,0,100.05,25H94.9v6.13h1.61V28.9h1.87l1.31,2.24h1.73Zm-.47-1.52a.38.38,0,0,1-.38.37H96.48v-1.6h2.75a.39.39,0,0,1,.38.38Z"  fill="currentColor"/>
  <path d="M92.87,25h-4a1.24,1.24,0,0,0-1.26,1.19v3.71a1.21,1.21,0,0,0,1.17,1.24h4.09A1.22,1.22,0,0,0,94.13,30h0v-3.7A1.23,1.23,0,0,0,92.94,25ZM92,30H89.78l-1.12-1.93,1.12-1.93H92l1.12,1.93Z"  fill="currentColor"/>
  <path d="M85.68,25h-4a1.24,1.24,0,0,0-1.26,1.19v3.71a1.21,1.21,0,0,0,1.17,1.24h4.09A1.22,1.22,0,0,0,86.94,30h0V28.89H85.46L84.82,30H82.59l-1.12-1.93,1.12-1.93h2.23l.64,1.15h1.48v-1A1.22,1.22,0,0,0,85.74,25Z"  fill="currentColor"/>
  <path d="M71.42,28.89a1.22,1.22,0,0,0,1.14-1.25V26.28A1.23,1.23,0,0,0,71.37,25H66.21v6.13h1.61V28.9h1.87L71,31.14h1.74ZM71,27.37a.38.38,0,0,1-.38.37H67.87v-1.6h2.75a.39.39,0,0,1,.38.38Z"  fill="currentColor"/>
  <path d="M64.31,25h-5.1v6.14h1.61V28.9h3.49a1.24,1.24,0,0,0,1.26-1.18V26.28A1.23,1.23,0,0,0,64.38,25ZM64,27.37a.38.38,0,0,1-.38.37H60.86v-1.6h2.76a.39.39,0,0,1,.38.38Z"  fill="currentColor"/>
  <polygon points="83.1 27.02 82.49 28.07 83.1 29.11 84.31 29.11 84.92 28.07 84.31 27.02 83.1 27.02"  fill="currentColor"/>
  <path d="M2.43,28.87H1v2.29H0V25H2.43c1.43,0,2.29.59,2.29,1.93S3.86,28.87,2.43,28.87Zm0-3.06H1v2.26H2.44c.94,0,1.34-.34,1.34-1.13s-.45-1.17-1.39-1.17Z"  fill="currentColor"/>
  <path d="M8.26,31.28a2.91,2.91,0,0,1-3-2.81v-.36a3,3,0,0,1,6,0h0a2.91,2.91,0,0,1-2.63,3.16H8.26Zm0-5.54a2.11,2.11,0,0,0-2,2.16v.21a2,2,0,0,0,4,0h0a2.1,2.1,0,0,0-1.84-2.33H8.26Z"  fill="currentColor"/>
  <path d="M17.35,31.16,15.92,26l-1.43,5.19H13.27L11.63,25h1L14,30.16,15.42,25h1.13L18,30.18,19.31,25h1l-1.69,6.15Z"  fill="currentColor"/>
  <path d="M21,25h4.44v.83H22v1.77h3.17v.82H22v1.85h3.5v.85H21Z"  fill="currentColor"/>
  <path d="M26.55,25h2.69c1.41,0,2.19.62,2.19,1.79a1.69,1.69,0,0,1-1.32,1.71l1.59,2.65H30.63l-1.51-2.51H27.5v2.51h-1Zm2.6,2.85c.81,0,1.29-.29,1.29-1s-.48-1-1.29-1H27.5v2Z"  fill="currentColor"/>
  <path d="M32.59,25H37v.83H33.54v1.77h3.17v.82H33.54v1.85h3.54v.85H32.59Z"  fill="currentColor"/>
  <path d="M40.4,31.16H38.12V25H40.4a3.08,3.08,0,1,1,0,6.15Zm0-5.32H39.1v4.5h1.3a2.25,2.25,0,0,0,0-4.5Z"  fill="currentColor"/>
  <path d="M46.16,25h2.57c1.32,0,2,.6,2,1.63a1.38,1.38,0,0,1-.84,1.3A1.44,1.44,0,0,1,51,29.41c0,1.06-.72,1.75-2.15,1.75H46.12Zm2.44.79H47.11v1.83H48.6c.75,0,1.17-.25,1.17-.92s-.42-1-1.17-1Zm.22,2.59H47.11v2h1.7c.79,0,1.25-.28,1.25-1S49.61,28.4,48.82,28.39Z"  fill="currentColor"/>
  <path d="M53.53,28.82,51.1,25h1.11L54,27.9,55.83,25H56.9l-2.45,3.83v2.32h-1Z"  fill="currentColor"/>
</svg>