<svg xmlns="http://www.w3.org/2000/svg" viewBox="0 0 43.2 8.07">
  <path fill="currentColor" d="M14.74 1.68h.55V4.3c0 .74-.57 1.31-1.33 1.31s-1.33-.56-1.33-1.31v-.07h.56v.07c0 .35.33.61.78.61s.78-.26.78-.61V1.68Zm4.04 2.41c0 .86-.66 1.51-1.53 1.51s-1.54-.65-1.54-1.51.66-1.51 1.54-1.51 1.53.65 1.53 1.51m-.54 0c0-.48-.43-.84-1-.84s-1 .36-1 .84.43.84 1 .84 1-.36 1-.84m1.51-.95v-.5h-.52v2.89h.52V4.15c0-.49.38-.78 1.01-.78h.07v-.78h-.07c-.42 0-.78.19-1.01.54Zm3.72-1.63h.52v4.02h-.52v-.49c-.25.36-.64.56-1.09.56-.82 0-1.45-.65-1.45-1.51s.62-1.51 1.45-1.51c.45 0 .84.2 1.09.56zm-1 1.74c-.57 0-1 .36-1 .84s.43.84 1 .84 1-.36 1-.84-.43-.84-1-.84m3.28 1.52h-.02l-.89-2.08-.02-.05h-.55l1.17 2.89h.08l-.48 1.02h.65l1.58-3.92h-.59l-.91 2.13Zm5.82-1.53h-2.11V1.68h-.55v3.86h.55V3.96h2.11v1.58h.55V1.68h-.55zm4.12.86c0 .06 0 .12-.01.18v.07l-.08.01h-2.42c.13.34.51.57.98.57.37 0 .71-.12.89-.31l.02-.02h.59l-.05.1c-.24.56-.8.9-1.46.9-.88 0-1.54-.65-1.54-1.51s.66-1.51 1.54-1.51 1.53.65 1.53 1.52Zm-.57-.28c-.13-.33-.51-.56-.97-.56s-.84.22-.97.56zm1.02 1.72h.52V1.51h-.52v4.02Zm4.2-1.45c0 .86-.62 1.51-1.45 1.51-.45 0-.84-.2-1.09-.56v1.52h-.52V2.64h.52v.5c.25-.35.64-.56 1.09-.56.83 0 1.45.65 1.45 1.51m-1.53-.84c-.57 0-1 .36-1 .84s.43.84 1 .84 1-.36 1-.84-.43-.84-1-.84m3.23.54c-.69-.1-.84-.21-.84-.3 0-.12.26-.25.71-.25.41 0 .72.13.72.3v.07h.53v-.07c0-.55-.52-.96-1.25-.96s-1.23.36-1.23.89c0 .34.2.76 1.13.9.4.05.87.14.87.31 0 .14-.28.28-.76.28-.44 0-.77-.15-.77-.34v-.07h-.52v.07c0 .58.54.99 1.28.99s1.29-.37 1.29-.92c0-.34-.2-.77-1.16-.9M3.78 3.44s.03.04.03.07-.01.05-.03.07c-.13.13-.27.22-.42.28-.07.04-.09.09-.08.17l.06.33s0 .05-.02.07c-.01.02-.04.04-.06.04a.11.11 0 0 1-.12-.08l-.06-.35c-.02-.07-.09-.11-.14-.12-.5-.02-.89-.34-.9-.34A.16.16 0 0 1 2 3.51c0-.03 0-.05.02-.07s.05-.04.08-.04c.02 0 .05 0 .06.02.02.01.37.3.8.3.25 0 .48-.1.68-.29.04-.04.1-.04.14 0Zm2.11 3.67s-.06-.13-.24-.25c-.04-.03-.45-.28-.54-.33-.05-.03-.23-.14-.27-.18l-.14-.14a.7.7 0 0 1-.17-.46c.25.1.57.14.95.14.32 0 .69-.03 1.11-.1.04 0 .07-.04.06-.08 0-.04-.04-.07-.08-.06-.29.06-.64.06-.64.06-.04 0-.06-.02-.07-.03-.02-.02-.02-.06-.02-.09a.76.76 0 0 0-.07-.55c-.21-.41-.85-.43-.87-.43-.06 0-.1.04-.1.1s.04.1.1.1c0 0 .54.02.7.32.1.19.07.36.03.46-.05.14-1.04.12-1.55-.37 0 0-.17-.26-.1-.49.04-.14.17-.25.37-.32.03 0 .04-.03.06-.05.01-.02.01-.05 0-.08a.1.1 0 0 0-.09-.07h-.03c-.27.1-.42.24-.49.45q-.03.075-.03.15c0 .03 0 .07-.03.09a.16.16 0 0 1-.11.05h-.32c-.63 0-.78 0-1.07-.11-.35-.12-.34-.37-.34-.37.05-.05.14-.06.2-.05.06 0 .12 0 .18.03h.03c.04 0 .08-.03.1-.07V4.3a.1.1 0 0 0-.06-.05.8.8 0 0 0-.26-.04c-.13 0-.23.04-.32.11h-.04c-.03-.03-.13-.1-.22-.23-.06-.09-.12-.3-.11-.51.02-.36.09-.57.29-.83.06-.09.15-.16.21-.17h.06c.15 0 .34.11.56.35.02.02.04.03.07.03s.05 0 .07-.03c.04-.04.04-.1 0-.14-.09-.1-.31-.26-.35-.29 0 0-.05-.04-.05-.13 0-.12.1-.25.29-.4.14-.12.27-.18.37-.18.13 0 .17.1.18.11 0 0 .09.23.12.29q.03.06.09.06h.04a.12.12 0 0 0 .05-.05c.01-.02.01-.05 0-.08-.03-.08-.07-.18-.11-.29a.28.28 0 0 1 0-.22c.03-.05.07-.09.13-.11.43-.15.78-.19 1.22-.2-.13-.22-.28-.42-.46-.6C3.75.25 3.16 0 2.53 0 1.02 0-.24 1.23.04 3.07s2.13 3.36 4.67 5c.43-.28.84-.56 1.23-.83 0 0-.01-.01-.02-.03 0 0 0-.08-.03-.1M4.45 3.07s.06-.02.08-.04.02-.05.02-.07c0-.03-.02-.05-.04-.06-.19-.13-.39-.2-.6-.2-.29 0-.54.13-.68.25a.1.1 0 0 0-.03.07c0 .03 0 .05.02.07s.05.03.08.03c.02 0 .05 0 .07-.02 0 0 .23-.2.55-.2.17 0 .33.06.49.16.02.01.04.02.06.02Zm.07-.67c.15 0 .24-.03.27.03.22.35.71.45.98.48 0 0 .02.01.03.02v.04s-.09.25-.06.52c0 .04.04.07.09.07h.02c.05 0 .08-.05.07-.1-.04-.25.05-.52.22-.7.28-.27.3-.55.3-.57a.09.09 0 0 0-.09-.09.09.09 0 0 0-.09.09s-.01.22-.24.44c-.02.02-.03.03-.05.06-.03.03-.06.05-.09.05-.24-.02-.8-.1-.97-.49-.09-.22.13-.36.13-.37.02-.01.03-.03.04-.06 0-.02 0-.05-.01-.07a.09.09 0 0 0-.08-.04c-.02 0-.03 0-.05.01-.09.05-.23.2-.24.39 0 .06-.04.09-.1.09h-.08c-.51 0-.58-.29-.58-.3 0-.04-.05-.07-.09-.07h-.02c-.02 0-.04.02-.06.04-.01.02-.02.04-.01.07 0 .02.1.44.76.44Zm1.62 1.74c-.36.03-.63-.04-.78-.21-.23-.26-.14-.69-.14-.7.01-.05-.02-.11-.08-.12-.05-.01-.11.02-.12.08 0 0-.04.16-.02.35 0 .03 0 .12-.07.15-.01 0-.11.04-.21.03-.21-.01-.34-.1-.35-.1-.02-.01-.04-.02-.06-.02a.09.09 0 0 0-.08.04c-.03.04-.02.11.02.14 0 0 .18.13.46.14.12 0 .25-.02.25-.02h.05c.04 0 .08.02.11.04.02.04.05.08.08.12.2.22.52.32.95.28.03 0 .05-.01.07-.04.02-.02.03-.05.02-.07 0-.05-.05-.1-.11-.09ZM6.88 0C5.6 0 4.93.98 4.76 1.28h.05c.08 0 .29.01.41.07.13.05.24.14.31.28.06.1.06.21.03.34-.02.05.01.11.07.13h.03c.04 0 .08-.03.1-.07.06-.19 0-.36-.02-.41V1.6s.13-.09.33-.09c.07 0 .13.01.2.03.48.12.66.35.77.48l.02.02c.09.1.13.27.1.39-.07.18-.18.29-.46.45-.05.03-.06.09-.03.14.02.03.05.05.09.05.02 0 .04 0 .05-.01.23-.14.36-.25.47-.43 0 0 .03-.01.08-.01.08 0 .19.03.3.17.06.06.1.15.12.25.05.29-.04.4-.05.41h-.02a1 1 0 0 0-.34-.06c-.23 0-.46.09-.71.26-.05.03-.06.09-.02.14.02.03.05.04.08.04.02 0 .04 0 .06-.02.21-.15.42-.22.64-.22.16 0 .32.04.47.13.04.03.14.1.15.25v.06c0 .2-.02.48-.29.8-.11.13-.26.16-.36.16-.08 0-.13-.02-.13-.02l-.14-.18c-.05-.07-.06-.14-.02-.2.09-.1.15-.21.2-.33.02-.05 0-.11-.05-.13h-.04c-.04 0-.08.02-.09.06-.16.38-.48.53-.66.58-.03 0-.05.02-.06.05-.01.02-.02.05 0 .08.01.05.07.08.12.07.08-.02.16-.05.23-.09.01 0 .04-.01.08-.01s.1.01.14.07.21.27.21.27c.03.04.04.09.04.14 0 .04-.02.09-.07.13-.04.03-.09.06-.13.08.01.06.02.13.02.2 0 .47-.42.68-.74.77-.22.06-.57-.18-.57-.18h-.04v.04s.12.09.17.13c.16.13.31.36.32.38.03.05.04.11.05.16.64-.47 1.21-.93 1.68-1.4.81-.82 1.35-1.65 1.49-2.58C9.67 1.24 8.42.01 6.9.01Z"></path>
</svg>