<svg viewBox="0 0 100 23" fill="none" xmlns="http://www.w3.org/2000/svg">
<g clip-path="url(#clip0_227_1637)">
<path d="M38.254 0.373216H33.1014L26.3372 7.40225V12.7525C26.3372 15.5637 27.4127 18.2597 29.327 20.2474C31.2413 22.2352 33.8377 23.3519 36.545 23.3519H41.6976L48.4592 16.3282V10.9726C48.4592 8.16196 47.3841 5.46636 45.4703 3.47866C43.5565 1.49095 40.9608 0.373921 38.254 0.373216ZM44.6031 19.3399H31.6819L30.1959 17.7942V4.37992H43.1145L44.6031 5.92567V19.3399ZM67.03 0.389178H70.8733V13.2553C70.8733 15.9242 69.8525 18.4838 68.0353 20.3712C66.2181 22.2586 63.7533 23.3193 61.1831 23.32H52.2769V19.3239L65.5414 19.3399L67.03 17.7942V0.389178ZM90.2922 0.373216H85.1396L78.378 7.40225V12.7525C78.378 15.5632 79.4531 18.2588 81.3669 20.2465C83.2807 22.2342 85.8764 23.3512 88.5832 23.3519H93.7358L100.5 16.3282V10.9726C100.5 8.1638 99.4263 5.46981 97.5147 3.48241C95.6032 1.49502 93.0101 0.376741 90.305 0.373216H90.2922ZM96.6413 19.3399H83.7227L82.2341 17.7942V4.37992H95.1553L96.6413 5.92567V19.3399ZM22.704 0.365234L12.5218 10.9381C15.7685 12.3139 18.3961 14.9103 19.8805 18.2092L22.1864 23.3679H17.9357L13.6671 13.8726H4.35867V23.3652H0.5V0.365234H4.35867V9.86055H8.64522L17.5232 0.365234H22.704Z" fill="currentColor"></path>
</g>
<defs>
<clipPath id="clip0_227_1637">
<rect width="100" height="23" fill="currentColor" transform="translate(0.5 0.365234)"></rect>
</clipPath>
</defs>
</svg>