<svg xmlns="http://www.w3.org/2000/svg" viewBox="0 0 204 98">
  <path fill="currentColor" d="m0 80.6 22.8-18.2C27 69.2 33 72.8 38.6 72.8c4.6 0 8.2-2.8 8.2-5.6 0-4-7-5.2-15.4-7.6-12-3.4-27.2-9-27.2-28.6C4 13 17.8 0 38 0c18 0 28.8 8 35.4 16.4L52.2 33c-3.2-5.6-8.6-9.6-14-9.6-4.4 0-7.4 2.4-7.4 5.4 0 4 7.2 5.6 15.6 8 12.6 3.6 28.2 9.4 28.2 29C74.6 83 61.4 98 38.2 98c-14.8.6-29-5.8-38.2-17.4ZM104.4 1.4H77.2V29h27.2Zm0 30.4H77.2v64.8h27.2Zm28.2-30.4h-25.2v95.2h25.2Zm2.4 62.8c0-18.8 13.6-34 34.6-34 20 0 34.4 15.2 34.4 34A33 33 0 0 1 169.6 98 33 33 0 0 1 135 64Zm43.2 0c0-6-3.6-10-8.8-10-5 0-8.6 4-8.6 10s3.6 9.8 8.6 9.8c5.2 0 8.8-4 8.8-10Zm0 0"/>
</svg>